<svg xmlns="http://www.w3.org/2000/svg" viewBox="0 0 560 128" width="560" height="128" role="img" aria-label="Aaegis Protocol logo">
  <defs>
    <linearGradient id="gfull" x1="0" y1="0" x2="1" y2="1">
      <stop offset="0%" stop-color="#22c55e"/>
      <stop offset="50%" stop-color="#0b1020"/>
      <stop offset="100%" stop-color="#7c3aed"/>
    </linearGradient>
    <linearGradient id="textGradP" x1="0" y1="0" x2="1" y2="0">
      <stop offset="0%" stop-color="#a7f3d0"/>
      <stop offset="45%" stop-color="#22c55e"/>
      <stop offset="100%" stop-color="#7c3aed"/>
    </linearGradient>
  </defs>

  <!-- mark -->
  <g transform="translate(20,16)">
    <rect width="96" height="96" rx="18" fill="url(#gfull)"/>
    <path d="M48 26c-8.5 0-15 6.5-15 13v16c0 7.5 10.5 17 15 20 4.5-3 15-12.5 15-20V39c0-6.5-6.5-13-15-13z" fill="rgba(0,0,0,0.06)"/>
    <path d="M48 30 36 76h6l3-10h18l3 10h6L48 30z" fill="#fff"/>
    <rect x="42" y="48" width="12" height="6" rx="3" fill="#fff"/>
  </g>

  <!-- wordmark -->
  <g transform="translate(140,70)">
    <text x="0" y="-6" font-family="Inter, Arial, sans-serif" font-weight="800" font-size="44" fill="url(#textGradP)">Aaegis</text>
    <text x="0" y="36" font-family="Inter, Arial, sans-serif" font-weight="600" font-size="20" fill="#94a3b8">Protocol</text>
  </g>
</svg>
